# xmcd
#
# Track frame offsets:
#	182
#	14720
#	31845
#	46342
#	66835
#	81285
#	96975
#	112305
#	127782
#	145690
#	160407
#	180787
#	193252
#	207912
#
# Disc length: 2958 seconds
#
# Revision: 1
# Processed by: cddbd v1.5.2PL0 Copyright (c) Steve Scherf et al.
# Submitted via: audiograbber 1.83.01
#
DISCID=c20b8c0e
DTITLE=Eliane - Cheiro de povo
DYEAR=1996
DGENRE=Forro
TTITLE0=Chiclete
TTITLE1=Vou te esperar
TTITLE2=Quero um pouco
TTITLE3=Me dá meu coração
TTITLE4=Só sei te amar
TTITLE5=De coração aceso
TTITLE6=Gosto de gostar
TTITLE7=Tapa de amor
TTITLE8=Coração feito menino
TTITLE9=Palha de coqueiro
TTITLE10=Como encontrar
TTITLE11=Jeito de viver
TTITLE12=Não fico sem você
TTITLE13=Sabor de mel
EXTD=
EXTT0=
EXTT1=
EXTT2=
EXTT3=
EXTT4=
EXTT5=
EXTT6=
EXTT7=
EXTT8=
EXTT9=
EXTT10=
EXTT11=
EXTT12=
EXTT13=
PLAYORDER=
